<svg width="182" height="50" viewBox="0 0 182 50" fill="none" xmlns="http://www.w3.org/2000/svg">
<rect width="182" height="50" fill="white"/>
<path fill-rule="evenodd" clip-rule="evenodd" d="M64.0072 33.9525C63.7472 33.9038 63.4871 34.0094 63.2352 34.2613C62.8045 34.6352 62.3656 34.9846 61.9187 35.3178C61.4717 35.651 60.9922 35.9111 60.4883 36.0899C59.9845 36.2768 59.4237 36.3662 58.8224 36.3662C58.221 36.3662 57.6846 36.2118 57.2133 35.9111C56.8475 35.6754 56.5469 35.3341 56.2949 34.8952C57.4002 34.2532 58.4404 33.6193 59.375 33.0017C60.4884 32.2622 61.4473 31.5145 62.26 30.7668C63.0727 30.0192 63.6903 29.2471 64.1291 28.4669C64.568 27.6868 64.7874 26.8741 64.7874 26.037C64.7874 25.3706 64.633 24.818 64.3323 24.3711C64.0316 23.9241 63.6172 23.5828 63.1052 23.3471C62.5851 23.1114 62.0162 22.9976 61.3904 22.9976C60.0089 22.9976 58.7899 23.2983 57.7496 23.9078C56.7094 24.5092 55.8398 25.2894 55.1491 26.2483C54.4583 27.2073 53.9382 28.2069 53.5806 29.2634C53.2311 30.3199 53.0523 31.3032 53.0523 32.2215C53.0523 32.766 53.093 33.278 53.1743 33.7737C52.4835 34.1638 51.7846 34.4889 51.0857 34.6758C49.566 35.074 49.3872 34.5051 49.3709 34.1882C49.4197 33.9038 49.4928 33.5868 49.6147 33.2049L52.776 23.4609C52.9142 23.0708 52.8979 22.7863 52.7354 22.5994C52.5729 22.4125 52.1828 22.3231 51.5814 22.3231C51.2076 22.3231 50.9313 22.38 50.7443 22.5019C50.5574 22.6157 50.3949 22.8757 50.2649 23.2658L48.2494 29.4422C47.8024 30.3605 47.2986 31.1894 46.746 31.9452C46.1933 32.701 45.6163 33.343 45.0312 33.8875C44.4461 34.432 43.8691 34.8546 43.2921 35.1472C42.7151 35.4397 42.1625 35.586 41.6423 35.586C40.976 35.586 40.4884 35.4641 40.1633 35.2203C39.8382 34.9765 39.6675 34.6108 39.6513 34.1232C39.635 33.6356 39.7407 33.0179 39.9764 32.2784L42.8695 23.469C43.0076 23.0789 42.9914 22.7945 42.8289 22.6075C42.6663 22.4206 42.2762 22.3312 41.6749 22.3312C41.301 22.3312 41.0247 22.3881 40.8378 22.51C40.6509 22.6238 40.4883 22.8839 40.3583 23.2739L37.4652 32.1077C37.4245 32.2459 37.392 32.3759 37.3595 32.506C36.9369 33.0342 36.4981 33.5299 36.0592 33.9444C35.4741 34.4889 34.8971 34.9115 34.3201 35.204C33.7594 35.4885 33.223 35.6348 32.711 35.6429C32.0934 35.6348 31.5814 35.5129 31.2563 35.3178C31.2482 35.3178 31.2401 35.3097 31.2319 35.3016C30.8094 35.0334 30.3136 34.562 30.1999 33.8713C30.143 33.4974 30.1104 33.0748 30.1592 32.571V32.5547C30.3872 32.3018 30.6491 31.9791 30.9124 31.6546L30.9127 31.6543C31.1654 31.3428 31.4196 31.0296 31.6464 30.775C31.7963 30.6098 31.9464 30.4451 32.0964 30.2804L32.098 30.2787L32.0995 30.277C32.9086 29.3891 33.717 28.5018 34.4908 27.5567C35.4091 26.4353 36.2624 25.3138 37.0345 24.176C37.8065 23.0464 38.481 21.9249 39.058 20.8115C39.635 19.7063 40.0739 18.6498 40.3908 17.6583C40.5696 17.0976 40.6834 16.5612 40.7647 16.0492C40.8378 15.6673 40.854 15.1634 40.854 14.9277C40.854 14.0988 40.7078 13.3918 40.4396 12.8066C40.1714 12.2215 39.7894 11.7664 39.3018 11.4495C38.8142 11.1325 38.2535 10.9781 37.6277 11.0025C36.4818 11.0431 35.5066 11.4576 34.7183 12.2621C33.9219 13.0586 33.2393 14.3264 32.6785 16.0574L28.737 29.5234C28.6089 30.0465 28.4492 30.5697 28.2903 31.0904L28.2902 31.0909L28.29 31.0913C28.207 31.3631 28.1243 31.6343 28.0463 31.9046L27.9975 31.9777C27.4449 32.7254 26.8679 33.3755 26.2827 33.92C25.6976 34.4645 25.1206 34.8871 24.5436 35.1797C23.9666 35.4722 23.414 35.6185 22.8939 35.6185C22.5525 35.6185 22.26 35.586 22.0081 35.521C22.0324 35.4976 22.0569 35.4742 22.0814 35.451L22.1355 35.3997C22.3058 35.2385 22.4762 35.0773 22.6257 34.8952C23.2677 34.1313 23.7634 33.278 24.121 32.3353C24.4786 31.3926 24.6493 30.3767 24.6493 29.304C24.6493 28.6214 24.5274 28.0037 24.2836 27.443C24.0397 26.8904 23.6903 26.3946 23.2433 25.9639C22.7964 25.5332 22.2762 25.1756 21.6749 24.8993C21.0816 24.6149 20.4965 24.4686 19.7569 24.3711C19.7569 24.3711 21.5205 23.8997 22.3656 23.5015C23.2027 23.1033 23.9422 22.5994 24.5761 21.998C25.21 21.3967 25.7057 20.7221 26.0714 19.9826C26.429 19.2431 26.6159 18.4548 26.6159 17.6096C26.6159 16.4962 26.3071 15.5291 25.6976 14.7002C25.08 13.8713 24.1291 13.2292 22.8451 12.766C21.5611 12.3109 19.9195 12.0752 17.9284 12.0752C16.7744 12.0752 15.6285 12.1646 14.4908 12.3515C13.353 12.5385 12.2397 12.8066 11.1669 13.1561C10.0942 13.5055 9.08648 13.9606 8.1519 14.5133C7.21732 15.0659 6.38026 15.7242 5.6326 16.4881C5.35629 16.7644 5.21813 17.0163 5.21 17.2601C5.20187 17.5039 5.27502 17.7396 5.42943 17.9753C5.62447 18.211 5.86828 18.3816 6.16084 18.5035C6.45341 18.6173 6.7541 18.5198 7.07103 18.211C8.04625 17.3333 9.10274 16.6181 10.2486 16.0574C11.3864 15.5047 12.6054 15.0903 13.8894 14.814C15.1734 14.5376 16.49 14.4076 17.839 14.4076C19.1881 14.4076 20.3989 14.5376 21.3092 14.7896C22.2194 15.0415 22.8857 15.4153 23.3246 15.9192C23.7634 16.4149 23.9829 17.0651 23.9829 17.8615C23.9829 18.4873 23.8122 19.0968 23.4709 19.69C23.1295 20.2833 22.6501 20.8278 22.0406 21.3316C21.4229 21.8274 20.724 22.25 19.9357 22.5913C19.1474 22.9326 18.3022 23.1683 17.4083 23.3064C17.2133 23.2089 16.9776 23.1195 16.6931 23.0464C16.4087 22.9651 16.0836 22.9326 15.7098 22.9326C15.0678 22.9326 14.5721 23.0545 14.2145 23.2983C13.8569 23.5421 13.6212 23.8266 13.4831 24.1435C13.3449 24.4686 13.2799 24.7449 13.2799 24.9806C13.2799 25.2731 13.3937 25.5251 13.6131 25.7445C13.8406 25.9558 14.1901 26.0695 14.6777 26.0695C15.0109 26.0695 15.336 26.0127 15.661 25.8908C15.8945 25.809 16.1364 25.7189 16.3927 25.6234L16.3936 25.6231C16.4938 25.5858 16.5962 25.5476 16.7013 25.5088C17.6765 25.5088 18.5623 25.6551 19.3669 25.9476C20.1633 26.2402 20.8053 26.6709 21.2848 27.2317C21.7643 27.8006 21.9999 28.4832 21.9999 29.2796C21.9999 30.4092 21.7968 31.4007 21.3823 32.2378C21.3254 32.3597 21.2523 32.4735 21.1791 32.5791C21.1402 32.6353 21.0976 32.6994 21.0509 32.7697L21.0505 32.7703C20.7458 33.2289 20.2618 33.9575 19.4237 34.5702C18.6354 35.1309 17.7821 35.5535 16.8313 35.8136C15.8886 36.0736 14.9378 36.2118 13.9788 36.2118C13.67 36.2118 13.3124 36.1793 12.9223 36.1224C12.5322 36.0655 12.1503 35.9842 11.7846 35.8704C11.4107 35.7648 11.0694 35.6185 10.7606 35.4479C10.4843 35.2934 10.2486 35.2447 10.0454 35.3178C9.84227 35.391 9.6391 35.5454 9.44406 35.7973C9.20837 36.0899 9.11085 36.3499 9.15149 36.5693C9.19212 36.7969 9.36279 37.0244 9.67974 37.2601C9.97229 37.4958 10.338 37.7152 10.7768 37.9184C11.2157 38.1216 11.7033 38.2841 12.2397 38.3979C12.776 38.5117 13.3449 38.5767 13.9544 38.5767C15.1653 38.5767 16.3112 38.4223 17.4083 38.1216C18.1966 37.9021 18.9117 37.6015 19.5863 37.252C20.1958 37.6746 21.0003 37.894 21.9999 37.894C22.5282 37.894 23.2433 37.764 23.6009 37.6583C23.9666 37.5527 24.6899 37.3008 25.2263 36.9838L25.2617 36.9629C25.7934 36.6487 26.4808 36.2426 26.9816 35.8054C27.2011 35.6104 27.648 35.1715 28.1031 34.6921C28.1031 34.8708 28.1194 35.0415 28.1438 35.204C28.2738 36.0736 28.6476 36.74 29.2734 37.2114C29.8992 37.6827 30.7362 37.9103 31.7927 37.9103C32.3209 37.9103 32.8492 37.829 33.3855 37.6583C33.9219 37.4877 34.4583 37.252 34.9946 36.9432C35.531 36.6344 36.0511 36.2524 36.5631 35.8054C36.7257 35.6624 36.8835 35.5032 37.0398 35.3456L37.1054 35.2796L37.1564 35.2284C37.2945 36.0574 37.6602 36.7075 38.2697 37.1626C38.8955 37.634 39.7326 37.8615 40.789 37.8615C41.3173 37.8615 41.8455 37.7802 42.3819 37.6096C42.9183 37.4389 43.4546 37.2032 43.991 36.8944C44.5274 36.5856 45.0475 36.2036 45.5595 35.7567C45.9252 35.4316 46.2665 35.0659 46.5997 34.6758C46.6241 34.944 46.6566 35.1797 46.681 35.3259C46.6972 35.4153 46.7135 35.4966 46.746 35.586C46.9979 36.4312 47.6155 37.7965 49.8585 37.7802C50.3543 37.7802 50.8581 37.7152 51.492 37.5364C52.3778 37.2845 53.2393 36.8294 54.0601 36.293C54.4176 36.9188 54.889 37.447 55.466 37.8615C56.2624 38.4385 57.3108 38.7229 58.5948 38.7229C59.3181 38.7229 60.0332 38.6336 60.7484 38.4466C61.4636 38.2597 62.1706 37.9509 62.8695 37.5283C63.5684 37.0976 64.251 36.5531 64.9174 35.8867C65.1531 35.6348 65.2506 35.3747 65.2263 35.1147C65.1938 34.8546 65.0556 34.6027 64.8037 34.367C64.5924 34.1557 64.3486 34.0175 64.0885 33.9688L64.0072 33.9525ZM34.7265 16.8944C34.9621 16.1549 35.531 15.0009 35.7667 14.5864C36.0024 14.1719 36.3031 13.855 36.5144 13.6843C36.7338 13.5137 36.9613 13.4243 37.197 13.4162C37.4327 13.408 37.6277 13.4649 37.774 13.5868C37.9203 13.7087 38.0341 13.8875 38.1072 14.1232C38.1803 14.3589 38.2128 14.6514 38.2128 15.0009C38.2128 15.7729 38.0828 16.6181 37.8146 17.5446C37.5465 18.471 37.1645 19.4381 36.6769 20.4458C36.1893 21.4535 35.5879 22.4044 34.9215 23.4283C34.2551 24.4523 33.5318 25.46 32.7598 26.4515C32.3047 27.0366 31.2482 28.3776 30.7606 28.9383L34.7183 16.9025L34.7265 16.8944ZM56.0186 30.1167C56.2462 29.3446 56.5712 28.597 57.002 27.8656C57.4327 27.1342 57.9772 26.5328 58.6436 26.0533C59.31 25.5738 60.0901 25.3381 60.9841 25.3381C61.3579 25.3381 61.6505 25.4275 61.8618 25.6144C62.0731 25.8014 62.1868 26.0939 62.1868 26.5084C62.1868 26.9797 62.008 27.4755 61.6586 28.0118C61.3092 28.5482 60.8134 29.109 60.1633 29.6941C59.5131 30.2792 58.7573 30.8725 57.8634 31.482C57.2051 31.929 56.4737 32.3759 55.7098 32.8229C55.6936 32.6035 55.6854 32.3678 55.6854 32.124C55.6854 31.5551 55.7992 30.8887 56.0186 30.1167Z" fill="#7CABF8"/>
<path d="M14.3527 16.7806C14.5478 16.9187 14.5965 17.1463 14.4909 17.4551V17.4632L9.43603 33.4405C9.00532 34.7001 8.51771 35.7891 7.98134 36.7075C7.43685 37.6258 6.81109 38.3247 6.10405 38.8042C5.39703 39.2755 4.54372 39.5112 3.55225 39.4949C2.82897 39.4868 2.17883 39.3162 1.58557 38.9992C0.992321 38.6741 0.577853 38.2434 0.195891 37.7558C-0.527396 36.8294 0.902918 35.3665 2.03254 36.293C2.30073 36.5124 2.56891 36.6912 2.86148 36.8131C3.15404 36.935 3.46286 37 3.79605 37C4.43807 37.0081 4.97444 36.7806 5.41329 36.3092C5.85213 35.8379 6.28285 34.9358 6.71356 33.6193L11.8578 17.3576C11.9553 17.0813 12.1341 16.8781 12.3779 16.7481C12.6299 16.6181 12.9631 16.5612 13.3938 16.5612C13.8408 16.5693 14.1577 16.6424 14.3527 16.7806Z" fill="#7CABF8"/>
<path fill-rule="evenodd" clip-rule="evenodd" d="M120.449 32.8245C119.97 33.4689 119.317 34.0227 118.702 34.5115C117.963 35.0984 117.224 35.6346 116.333 35.9639C115.827 36.1496 115.265 36.2383 114.666 36.2383C114.066 36.2383 113.53 36.0821 113.057 35.7823C112.69 35.5459 112.39 35.2039 112.137 34.7648C113.243 34.1189 114.286 33.4856 115.219 32.8692C116.329 32.1304 117.292 31.3831 118.102 30.6359C118.917 29.8886 119.534 29.116 119.973 28.335C120.412 27.5539 120.631 26.7391 120.631 25.9032C120.631 25.2361 120.475 24.6831 120.175 24.2355C119.871 23.788 119.458 23.446 118.947 23.2096C118.436 22.9732 117.857 22.8592 117.233 22.8592C115.852 22.8592 114.632 23.1632 113.593 23.7711C112.555 24.3706 111.681 25.1517 110.993 26.11C110.305 27.0684 109.785 28.069 109.426 29.1244C109.068 30.1841 108.899 31.1636 108.899 32.084C108.899 32.8735 108.987 33.5954 109.144 34.2793C108.595 34.5453 108.063 34.6846 107.56 34.6846C106.902 34.6846 106.682 34.6762 106.349 34.4229C106.277 34.3553 106.222 34.2751 106.18 34.1865C106.019 33.8276 106.091 33.1774 106.399 32.2444L106.969 30.5134C106.978 30.5134 107.733 28.2125 107.733 28.2125C108.126 27.0009 108.286 25.9369 108.215 25.025C108.151 24.1089 107.835 23.3996 107.265 22.8888C106.695 22.3864 105.859 22.1246 104.744 22.1246C104.044 22.1246 103.364 22.2639 102.688 22.5384C103.182 22.0275 103.638 21.5251 104.044 21.0354C104.529 20.4528 104.964 19.8828 105.344 19.3382C105.724 18.7936 106.04 18.2574 106.294 17.7297C106.547 17.1977 106.733 16.6784 106.847 16.1591C106.961 15.6356 107.024 15.1163 107.024 14.5886C107.024 13.8624 106.889 13.2376 106.619 12.7183C106.344 12.1864 105.969 11.7726 105.492 11.4729C105.01 11.1731 104.474 11.0169 103.866 11.0169C102.739 11.0169 101.781 11.4053 100.983 12.1864C100.193 12.9674 99.5135 14.2255 98.952 15.9565L94.8652 28.6009C94.3924 29.2595 90.7911 34.1442 86.2822 35.9385C84.5765 36.5845 82.7105 36.6309 81.0428 36.0947C80.1014 35.795 78.953 35.2588 78.1002 34.3722L78.0496 34.3216C77.944 34.2076 77.8469 34.0936 77.7498 33.9711C77.7271 33.9397 77.7044 33.9075 77.6813 33.8749C77.6488 33.8287 77.6155 33.7817 77.5809 33.7347C77.5668 33.713 77.5524 33.691 77.5379 33.6688C77.4959 33.6047 77.4528 33.5388 77.412 33.473L77.2643 33.2028L77.1165 32.9115C76.9645 32.5695 76.8252 32.2106 76.7197 31.8222C76.4748 30.9187 76.3439 29.8548 76.3439 28.66C76.3439 27.6215 76.4706 26.5407 76.7408 25.4345C76.8632 24.911 77.0194 24.3917 77.1883 23.8725C77.1956 23.848 77.2044 23.8249 77.2129 23.8025C77.2191 23.7862 77.2252 23.7702 77.2305 23.7542C77.2474 23.7162 77.2601 23.6783 77.2727 23.636L77.2774 23.623C77.4575 23.1248 77.6419 22.6143 77.8596 22.1246C78.3409 21.0438 78.9361 20.0095 79.6328 19.068C80.3294 18.1265 81.1188 17.2779 81.9885 16.556C82.8498 15.834 83.7997 15.2641 84.8172 14.8588C85.8262 14.4535 86.9239 14.2508 88.068 14.2508C89.3937 14.2508 90.5125 14.4071 91.4075 14.7237C92.2899 15.0361 93.0414 15.4879 93.624 16.0747C93.9068 16.3407 94.1601 16.4715 94.3966 16.4547C94.6077 16.4462 94.8525 16.3407 95.1354 16.138C95.4225 15.91 95.6082 15.7074 95.6969 15.5216C95.7771 15.3612 95.8193 15.0994 95.566 14.7997C95.1016 14.0989 94.519 13.5162 93.8182 13.0518C93.1258 12.5917 92.3236 12.2412 91.4286 11.9964C90.5462 11.76 89.5372 11.6375 88.4564 11.6375C86.831 11.6375 85.3027 11.8993 83.939 12.4186C82.5712 12.9378 81.3215 13.6513 80.2154 14.5548C79.1092 15.4541 78.134 16.4969 77.3065 17.6494C76.4748 18.802 75.7697 20.039 75.1998 21.3393C75.0689 21.6307 74.9465 21.9346 74.8325 22.2259C74.8325 22.2259 74.8156 22.2639 74.8072 22.2808C74.5243 23.0281 74.2879 23.7754 74.0937 24.5226C74.0641 24.6366 74.0388 24.7422 74.0135 24.8561C74.0008 24.9068 73.9881 24.9575 73.9755 25.0039L73.9652 25.0467C73.9476 25.12 73.9305 25.1914 73.9164 25.2657C73.9006 25.3169 73.8922 25.3718 73.8843 25.4234L73.8826 25.4345C73.4351 27.4653 73.338 29.3946 73.6208 31.1889C73.8235 32.4893 74.2034 33.6756 74.7649 34.7226C75.7529 36.576 77.6147 37.9903 80.1351 38.8009C81.1737 39.1345 82.2714 39.3033 83.3775 39.3033C84.6863 39.3033 86.012 39.0711 87.2785 38.5898C89.343 37.7666 91.1964 36.4536 92.7332 35.1026L92.197 36.7533C92.083 37.1291 92.159 37.3782 92.4334 37.5175C92.7121 37.6568 93.0034 37.7201 93.3116 37.7201C93.7591 37.7201 94.0842 37.6568 94.2784 37.5344C94.4726 37.4035 94.6119 37.2177 94.6837 36.9644L96.6679 30.8047C97.1239 29.8928 97.6263 29.0485 98.1794 28.2843C98.7535 27.4948 99.3573 26.8066 99.9905 26.2198C100.624 25.633 101.266 25.1855 101.924 24.8688C102.574 24.5606 103.208 24.396 103.811 24.396C104.415 24.396 104.846 24.51 105.145 24.7295C105.445 24.9575 105.627 25.2741 105.673 25.6963C105.724 26.1185 105.648 26.6124 105.454 27.1993L104.74 29.3524H104.723L103.862 31.9278C103.626 32.6075 103.512 33.2534 103.512 33.8445C103.512 34.4355 103.617 34.9633 103.837 35.4192C103.892 35.5332 103.951 35.6472 104.022 35.7443C104.626 36.728 105.876 36.9053 106.632 36.9053C107.159 36.9053 107.687 36.8209 108.223 36.652C108.734 36.4958 109.249 36.2594 109.76 35.9765C110.123 36.652 110.613 37.2135 111.221 37.6526C112.019 38.231 113.066 38.5139 114.349 38.5139C115.071 38.5139 115.789 38.4252 116.502 38.2394C117.857 37.8848 118.985 37.1629 120.049 36.2805L120.1 36.2384C120.399 35.9919 120.721 35.7264 121.02 35.4416C121.404 36.3864 121.979 37.1377 122.767 37.7033C123.565 38.2817 124.612 38.5645 125.896 38.5645C126.618 38.5645 127.336 38.4759 128.049 38.2901C128.762 38.1001 129.472 37.7919 130.168 37.3697C130.639 37.0789 131.103 36.7361 131.561 36.3387L131.541 36.4071C131.84 36.7153 132.178 37.0066 132.579 37.2726C133.17 37.661 133.837 37.9692 134.593 38.2056C135.349 38.4336 136.13 38.556 136.949 38.556C138.072 38.556 139.093 38.3914 140.014 38.0747C140.934 37.7581 141.665 37.2262 142.209 36.5127C142.34 36.3438 142.551 35.9765 142.551 35.9765H142.555C142.555 35.9765 142.868 35.301 142.99 34.5453C143.121 33.9373 142.952 32.7805 142.952 32.7805C142.88 32.4048 142.766 32.0713 142.602 31.7968C142.31 31.3113 141.943 30.8891 141.487 30.5387C141.04 30.1883 140.55 29.8717 140.039 29.5888C139.524 29.3144 139.047 29.0357 138.591 28.7613C138.135 28.4869 137.768 28.1787 137.476 27.8114C137.185 27.4526 137.037 27.0219 137.037 26.5195C137.037 25.9454 137.248 25.4472 137.671 25.0503C138.097 24.6535 138.794 24.4508 139.777 24.4508C140.639 24.4508 141.403 24.6155 142.061 24.9321C142.72 25.2572 143.294 25.6287 143.775 26.0762C143.995 26.2789 144.206 26.3422 144.409 26.2873C144.611 26.2282 144.831 26.1058 145.067 25.9285C145.342 25.6836 145.49 25.4725 145.49 25.2783C145.49 25.0841 145.392 24.8646 145.19 24.6028C144.945 24.2482 144.582 23.8893 144.092 23.5558C143.607 23.2223 142.994 22.9394 142.272 22.7114C141.546 22.4834 140.736 22.3779 139.832 22.3779C138.587 22.3779 137.561 22.5974 136.75 23.028C135.935 23.4587 135.344 24.0117 134.977 24.6872C134.601 25.3585 134.424 26.0678 134.424 26.8066C134.424 27.5877 134.572 28.2463 134.863 28.774C135.154 29.3017 135.522 29.7492 135.978 30.0997C136.429 30.4459 136.911 30.7583 137.43 31.0327C137.954 31.3071 138.439 31.5731 138.887 31.8433C139.334 32.1135 139.71 32.4217 140.001 32.7636C140.292 33.1056 140.44 33.532 140.44 34.0555C140.44 34.579 140.314 35.0223 140.052 35.3981C139.794 35.7696 139.41 36.044 138.899 36.2256C138.388 36.4071 137.755 36.4958 136.991 36.4958C136.092 36.4958 135.268 36.3058 134.53 35.9258C133.791 35.5416 133.191 35.1026 132.727 34.6002C132.556 34.3968 132.374 34.2993 132.194 34.2999C132.165 34.2689 132.135 34.2381 132.102 34.2076L132.094 34.1991C131.882 33.988 131.642 33.8529 131.38 33.8023L131.384 33.8149C131.123 33.7643 130.865 33.8698 130.612 34.1231C130.181 34.4947 129.742 34.8451 129.294 35.1786C128.847 35.5121 128.366 35.7739 127.863 35.9512C127.357 36.137 126.795 36.2256 126.196 36.2256C125.596 36.2256 125.06 36.0694 124.587 35.7697C124.224 35.5332 123.924 35.1913 123.671 34.7522C124.773 34.1062 125.816 33.473 126.749 32.8566C127.859 32.1178 128.817 31.3705 129.632 30.6232C130.447 29.8759 131.063 29.1033 131.502 28.3223C131.942 27.5413 132.161 26.7264 132.161 25.8905C132.161 25.2235 132.009 24.6704 131.705 24.2229C131.401 23.7754 130.987 23.4334 130.477 23.197C129.966 22.9605 129.387 22.8466 128.762 22.8466C127.382 22.8466 126.162 23.1505 125.123 23.7585C124.085 24.358 123.215 25.139 122.523 26.0974C121.83 27.0557 121.311 28.0563 120.952 29.1118C120.593 30.1715 120.424 31.1509 120.424 32.0713C120.424 32.3276 120.433 32.5787 120.449 32.8245ZM101.899 20.5921C101.494 21.162 101.021 21.7489 100.493 22.3653V22.361C99.9652 22.9774 99.4037 23.598 98.7957 24.2229L101.396 16.29C101.633 15.5512 101.852 14.9643 102.072 14.5506C102.283 14.1284 102.503 13.8329 102.731 13.6725C102.954 13.5078 103.191 13.4191 103.444 13.4191C103.655 13.4191 103.841 13.4698 103.989 13.5669C104.136 13.664 104.25 13.8118 104.339 14.006C104.428 14.2044 104.47 14.4366 104.47 14.7068C104.47 15.0952 104.415 15.5174 104.293 15.9649C104.17 16.4124 104.014 16.8811 103.811 17.3708C103.609 17.8605 103.338 18.3798 103.005 18.9244C102.671 19.4691 102.304 20.0306 101.89 20.5921H101.899ZM111.862 29.9139C112.09 29.1413 112.415 28.3941 112.846 27.6637C113.277 26.9333 113.821 26.3338 114.488 25.8525C115.155 25.3754 115.932 25.139 116.827 25.139C117.203 25.139 117.494 25.2277 117.705 25.4134C117.917 25.6034 118.031 25.8947 118.031 26.3085C118.031 26.7813 117.853 27.2753 117.503 27.8114C117.152 28.3476 116.658 28.9049 116.008 29.4917C115.358 30.0744 114.602 30.6696 113.707 31.2776C113.049 31.7251 112.318 32.1726 111.554 32.6201C111.537 32.4006 111.529 32.1642 111.529 31.9193C111.529 31.3536 111.643 30.6865 111.862 29.9139ZM123.392 29.973C123.62 29.2004 123.945 28.4532 124.376 27.7228C124.807 26.9924 125.351 26.3929 126.018 25.9116C126.681 25.4346 127.462 25.1981 128.357 25.1981C128.733 25.1981 129.024 25.2868 129.235 25.4725C129.446 25.6625 129.56 25.9538 129.56 26.3676C129.56 26.8404 129.383 27.3344 129.033 27.8706C128.682 28.4067 128.188 28.964 127.538 29.5509C126.888 30.1335 126.132 30.7288 125.237 31.3367C124.579 31.7842 123.848 32.2317 123.084 32.6793C123.067 32.4597 123.059 32.2233 123.059 31.9784C123.059 31.4127 123.173 30.7456 123.392 29.973Z" fill="#7CABF8"/>
<path fill-rule="evenodd" clip-rule="evenodd" d="M154.735 33.8023C154.997 33.8529 155.238 33.988 155.449 34.1991L155.457 34.2076C155.711 34.444 155.846 34.6931 155.879 34.9548C155.905 35.2166 155.808 35.4741 155.571 35.7274C154.904 36.3945 154.22 36.9391 153.524 37.3697C152.827 37.7919 152.118 38.1001 151.404 38.2901C150.691 38.4759 149.973 38.5645 149.251 38.5645C147.968 38.5645 146.921 38.2817 146.123 37.7033C145.316 37.1249 144.734 36.3523 144.35 35.377C143.97 34.4018 143.78 33.2956 143.78 32.0713C143.78 31.1509 143.948 30.1715 144.307 29.1118C144.666 28.0563 145.185 27.0557 145.878 26.0974C146.57 25.139 147.44 24.358 148.478 23.7585C149.517 23.1505 150.737 22.8466 152.118 22.8466C152.743 22.8466 153.321 22.9605 153.832 23.197C154.343 23.4334 154.756 23.7754 155.06 24.2229C155.364 24.6704 155.516 25.2235 155.516 25.8905C155.516 26.7264 155.297 27.5413 154.858 28.3223C154.419 29.1033 153.802 29.8759 152.987 30.6232C152.173 31.3705 151.214 32.1178 150.104 32.8566C149.171 33.473 148.128 34.1062 147.026 34.7522C147.279 35.1913 147.579 35.5332 147.942 35.7697C148.415 36.0694 148.951 36.2256 149.551 36.2256C150.15 36.2256 150.712 36.137 151.218 35.9512C151.721 35.7739 152.202 35.5121 152.65 35.1786C153.097 34.8451 153.536 34.4947 153.967 34.1231C154.22 33.8698 154.478 33.7643 154.74 33.8149L154.735 33.8023ZM147.731 27.7228C147.301 28.4532 146.976 29.2004 146.748 29.973C146.528 30.7456 146.414 31.4127 146.414 31.9784C146.414 32.2233 146.422 32.4597 146.439 32.6793C147.203 32.2317 147.934 31.7842 148.592 31.3367C149.488 30.7288 150.243 30.1335 150.893 29.5509C151.544 28.964 152.038 28.4067 152.388 27.8706C152.738 27.3344 152.916 26.8404 152.916 26.3676C152.916 25.9538 152.802 25.6625 152.591 25.4725C152.379 25.2868 152.088 25.1981 151.712 25.1981C150.817 25.1981 150.036 25.4346 149.374 25.9116C148.706 26.3929 148.162 26.9924 147.731 27.7228Z" fill="#7CABF8"/>
</svg>
